<!-- Generator: Adobe Illustrator 24.0.3, SVG Export Plug-In  -->
<svg
  version="1.1"
  xmlns="http://www.w3.org/2000/svg"
  xmlns:xlink="http://www.w3.org/1999/xlink"
  x="0px"
  y="0px"
  width="1280px"
  height="4902px"
  viewBox="0 0 1280 4902"
  style="enable-background: new 0 0 1280 4902"
  xml:space="preserve"
>
  <style type="text/css">
    .st0 {
      fill: url(#SVGID_1_);
    }
    .st1 {
      opacity: 0.7;
    }
    .st2 {
      fill: url(#SVGID_2_);
    }
    .st3 {
      fill: none;
    }
    .st4 {
      fill: url(#SVGID_3_);
    }
    .st5 {
      fill: url(#SVGID_4_);
    }
    .st6 {
      fill: url(#SVGID_5_);
    }
    .st7 {
      fill: url(#SVGID_6_);
    }
    .st8 {
      fill: url(#SVGID_7_);
    }
    .st9 {
      fill: url(#SVGID_8_);
    }
    .st10 {
      fill: url(#SVGID_9_);
    }
    .st11 {
      fill: url(#SVGID_10_);
    }
    .st12 {
      fill: url(#SVGID_11_);
    }
    .st13 {
      fill: url(#SVGID_12_);
    }
    .st14 {
      fill: url(#SVGID_13_);
    }
    .st15 {
      fill: url(#SVGID_14_);
    }
  </style>
  <defs></defs>
  <g>
    <g>
      <radialGradient
        id="SVGID_1_"
        cx="3340.5886"
        cy="5521.1699"
        r="1"
        gradientTransform="matrix(2292.4954 5691.6787 1679.0304 -676.2802 -16928496 -15279699)"
        gradientUnits="userSpaceOnUse"
      >
        <stop offset="0" style="stop-color: #fac9b5; stop-opacity: 0.15" />
        <stop offset="0.485" style="stop-color: #ffffff" />
        <stop offset="1" style="stop-color: #cce2f2; stop-opacity: 0.38" />
      </radialGradient>
      <polygon
        class="st0"
        points="0,0 1280,0 1280,689.8 1280,1781.2 1280,4902 0,4902 		"
      />
      <g class="st1">
        <radialGradient
          id="SVGID_2_"
          cx="1032.7059"
          cy="1047.403"
          r="385.4013"
          gradientUnits="userSpaceOnUse"
        >
          <stop offset="0" style="stop-color: #ffffff" />
          <stop offset="5.000000e-03" style="stop-color: #ffffff" />
          <stop offset="5.000000e-03" style="stop-color: #ffffff" />
          <stop offset="1" style="stop-color: #d4eaf8" />
        </radialGradient>
        <path
          class="st2"
          d="M1280,763.5v912.2c-98.3-7.2-195.9-45.9-276.5-116.7c-192.5-169.2-215.1-458.1-50.6-645.2
				C1038.5,816.4,1158,765.8,1280,763.5z"
        />
        <path
          class="st3"
          d="M1280,763.5v912.2c-98.3-7.2-195.9-45.9-276.5-116.7c-192.5-169.2-215.1-458.1-50.6-645.2
				C1038.5,816.4,1158,765.8,1280,763.5z"
        />
      </g>
      <g class="st1">
        <radialGradient
          id="SVGID_3_"
          cx="285.751"
          cy="2362.061"
          r="415.5027"
          gradientUnits="userSpaceOnUse"
        >
          <stop offset="0" style="stop-color: #ffffff" />
          <stop offset="5.000000e-03" style="stop-color: #ffffff" />
          <stop offset="5.000000e-03" style="stop-color: #ffffff" />
          <stop offset="1" style="stop-color: #d4eaf8" />
        </radialGradient>
        <path
          class="st4"
          d="M606.2,2752.1c-114.6,214.7-383,296.4-606.1,187.4v-821l0,0c125.7-55.3,276.5-53.8,409.3,17.1
				C635.4,2256.2,723.5,2532.3,606.2,2752.1z"
        />
        <path
          class="st3"
          d="M606.2,2752.1c-114.6,214.7-383,296.4-606.1,187.4v-821l0,0c125.7-55.3,276.5-53.8,409.3,17.1
				C635.4,2256.2,723.5,2532.3,606.2,2752.1z"
        />
      </g>
      <g class="st1">
        <radialGradient
          id="SVGID_4_"
          cx="139.021"
          cy="840.3934"
          r="208.5459"
          gradientUnits="userSpaceOnUse"
        >
          <stop offset="0" style="stop-color: #ffffff" />
          <stop offset="1" style="stop-color: #fcdacd" />
        </radialGradient>
        <path
          class="st5"
          d="M264.7,1081.9c-66.9,76-174.6,95.6-264.7,55.6V712.3c77.9-30.1,170.7-16,239.2,44.2
				C336.2,841.8,347.7,987.5,264.7,1081.9z"
        />
        <path
          class="st3"
          d="M264.7,1081.9c-66.9,76-174.6,95.6-264.7,55.6V712.3c77.9-30.1,170.7-16,239.2,44.2
				C336.2,841.8,347.7,987.5,264.7,1081.9z"
        />
      </g>
      <g class="st1">
        <radialGradient
          id="SVGID_5_"
          cx="3339.0762"
          cy="5481.1553"
          r="1"
          gradientTransform="matrix(-110.9886 94.1458 95.457 112.5344 -152012.5781 -930741.5)"
          gradientUnits="userSpaceOnUse"
        >
          <stop offset="0" style="stop-color: #ffffff" />
          <stop offset="1" style="stop-color: #fcdacd" />
        </radialGradient>
        <path
          class="st6"
          d="M717.8,384.3c60.5,53.2,67.6,144,15.9,202.8c-51.7,58.8-142.7,63.4-203.2,10.2
				c-60.5-53.2-67.6-144-15.9-202.8S657.3,331.1,717.8,384.3z"
        />

        <ellipse
          transform="matrix(0.6603 -0.751 0.751 0.6603 -156.5557 635.5198)"
          class="st3"
          cx="624.2"
          cy="490.8"
          rx="141.8"
          ry="145.9"
        />
      </g>
      <g class="st1">
        <radialGradient
          id="SVGID_6_"
          cx="1115.4332"
          cy="2082.8511"
          r="209.7506"
          gradientUnits="userSpaceOnUse"
        >
          <stop offset="0" style="stop-color: #ffffff" />
          <stop offset="1" style="stop-color: #fcdacd" />
        </radialGradient>
        <path
          class="st7"
          d="M1280,1941.4v465.8c-70.8,13.5-147.7-5.2-207-57.4c-100.5-88.4-112.3-239.2-26.4-336.9
				C1106,1945.4,1196.5,1920.9,1280,1941.4z"
        />
        <path
          class="st3"
          d="M1280,1941.4v465.8c-70.8,13.5-147.7-5.2-207-57.4c-100.5-88.4-112.3-239.2-26.4-336.9
				C1106,1945.4,1196.5,1920.9,1280,1941.4z"
        />
      </g>
      <g class="st1">
        <radialGradient
          id="SVGID_7_"
          cx="191.3794"
          cy="4785.623"
          r="157.0656"
          gradientUnits="userSpaceOnUse"
        >
          <stop offset="0" style="stop-color: #ffffff" />
          <stop offset="1" style="stop-color: #fcdacd" />
        </radialGradient>
        <path
          class="st8"
          d="M440.8,4902H0v-132.1c115.8-61.1,264.3-46.7,370.9,47.1C399.5,4842.1,422.8,4870.9,440.8,4902z"
        />
        <path
          class="st3"
          d="M440.8,4902H0v-132.1c115.8-61.1,264.3-46.7,370.9,47.1C399.5,4842.1,422.8,4870.9,440.8,4902z"
        />
      </g>
    </g>
  </g>
</svg>
